<?xml version="1.0" encoding="UTF-8" standalone="no"?>
<!-- Created with Inkscape (http://www.inkscape.org/) -->

<svg
   version="1.1"
   id="svg2"
   xml:space="preserve"
   width="396"
   height="156"
   viewBox="0 0 396 156"
   sodipodi:docname="carggregator_logo.eps"
   xmlns:inkscape="http://www.inkscape.org/namespaces/inkscape"
   xmlns:sodipodi="http://sodipodi.sourceforge.net/DTD/sodipodi-0.dtd"
   xmlns="http://www.w3.org/2000/svg"
   xmlns:svg="http://www.w3.org/2000/svg"><defs
     id="defs6"><clipPath
       clipPathUnits="userSpaceOnUse"
       id="clipPath18"><path
         d="m 0,330 h 2966.41 v 40 H 0 Z"
         id="path16" /></clipPath><clipPath
       clipPathUnits="userSpaceOnUse"
       id="clipPath28"><path
         d="M 7.37891,3.82813 H 2959.0189 v 269.57 H 7.37891 Z"
         id="path26" /></clipPath><clipPath
       clipPathUnits="userSpaceOnUse"
       id="clipPath38"><path
         d="m 1096.13,424.961 h 774.141 V 1170 H 1096.13 Z"
         id="path36" /></clipPath></defs><sodipodi:namedview
     id="namedview4"
     pagecolor="#ffffff"
     bordercolor="#666666"
     borderopacity="1.0"
     inkscape:pageshadow="2"
     inkscape:pageopacity="0.0"
     inkscape:pagecheckerboard="0" /><g
     id="g8"
     inkscape:groupmode="layer"
     inkscape:label="ink_ext_XXXXXX"
     transform="matrix(1.3333333,0,0,-1.3333333,0,156)"><g
       id="g10"
       transform="scale(0.1)"><g
         id="g12"><g
           id="g14"
           clip-path="url(#clipPath18)"><path
             d="M 29.6484,361.328 H 2936.72 c 16.44,0 29.69,-5.43 29.69,-12.148 0,-6.758 -13.25,-12.149 -29.69,-12.149 H 29.6484 C 13.2383,337.031 0,342.422 0,349.18 c 0,6.718 13.2383,12.148 29.6484,12.148 z"
             style="fill:#35185a;fill-opacity:1;fill-rule:nonzero;stroke:none"
             id="path20" /></g></g><g
         id="g22"><g
           id="g24"
           clip-path="url(#clipPath28)"><path
             d="m 130.199,226.879 c -20.898,0 -37.0388,-7.859 -48.4802,-23.559 -11.5196,-15.699 -17.2696,-37.582 -17.2696,-65.66 0,-58.3983 21.9219,-87.6209 65.7498,-87.6209 18.391,0 40.66,4.6093 66.832,13.7929 V 17.2695 C 175.551,8.32031 151.559,3.83203 125.078,3.83203 86.9492,3.83203 57.8086,15.3906 37.6211,38.5195 17.4609,61.6016 7.37891,94.7695 7.37891,138.012 c 0,27.187 4.92189,51.047 14.81249,71.519 9.918,20.508 24.1797,36.207 42.6875,47.11 18.6016,10.98 40.3511,16.449 65.3201,16.449 25.422,0 50.973,-6.18 76.68,-18.481 l -17.93,-45.121 c -9.769,4.653 -19.609,8.672 -29.539,12.153 -9.879,3.48 -19.64,5.238 -29.211,5.238 z M 472.809,7.42188 H 413.012 L 394.02,69.7695 H 298.551 L 279.57,7.42188 h -59.8 L 312.23,270.391 h 67.848 z M 312.5,116.289 h 68.32 c -17.582,56.481 -27.422,88.481 -29.648,95.902 -2.223,7.379 -3.832,13.239 -4.762,17.539 -3.949,-15.32 -15.281,-53.128 -33.91,-113.441 z m 248.789,107.5 v -70.738 h 17.93 c 17.543,0 30.511,2.929 38.871,8.75 8.359,5.859 12.531,15.039 12.531,27.578 0,12.422 -4.25,21.281 -12.769,26.562 -8.551,5.231 -21.762,7.848 -39.692,7.848 z m 29.57,-115.859 h -29.57 V 7.42188 H 505.781 V 269.262 h 76.367 c 35.551,0 61.872,-6.492 78.942,-19.422 17.07,-12.93 25.59,-32.57 25.59,-58.981 0,-15.429 -4.219,-29.097 -12.7,-41.089 -8.429,-12.04 -20.46,-21.45 -36.011,-28.25 C 677.379,62.6602 703.09,24.6484 715,7.42188 h -61.641 z m 256.481,0.39 v 46.129 H 951.25 V 18.7109 C 934.41,13.2383 918.59,9.37891 903.711,7.14844 888.828,4.92188 873.629,3.83203 858.09,3.83203 c -39.539,0 -69.731,11.59767 -90.551,34.83987 -20.82,23.2383 -31.25,56.5976 -31.25,100.0781 0,42.27 12.109,75.199 36.332,98.828 24.141,23.672 57.649,35.512 100.578,35.512 26.84,0 52.742,-5.391 77.699,-16.141 L 932.461,212.5 c -19.102,9.57 -38.981,14.379 -59.652,14.379 -24.02,0 -43.239,-8.09 -57.649,-24.219 -14.5,-16.101 -21.719,-37.781 -21.719,-65 0,-28.441 5.821,-50.16 17.457,-65.16 11.641,-14.9609 28.551,-22.4609 50.782,-22.4609 11.558,0 23.359,1.2109 35.269,3.5898 V 108.32 Z m 221.72,115.469 v -70.738 h 17.93 c 17.54,0 30.51,2.929 38.87,8.75 8.36,5.859 12.54,15.039 12.54,27.578 0,12.422 -4.26,21.281 -12.81,26.562 -8.52,5.231 -21.72,7.848 -39.65,7.848 z m 29.57,-115.859 h -29.57 V 7.42188 h -55.51 V 269.262 h 76.29 c 35.59,0 61.96,-6.492 79.03,-19.422 17.07,-12.93 25.58,-32.57 25.58,-58.981 0,-15.429 -4.22,-29.097 -12.69,-41.089 -8.52,-12.04 -20.51,-21.45 -36.02,-28.25 39.42,-58.8598 65.12,-96.8716 77.03,-114.09812 h -61.6 z M 1406.56,53.2813 V 7.42188 H 1255.74 V 269.262 h 150.82 v -45.473 h -95.31 v -57.461 h 88.63 v -45.547 h -88.63 V 53.2813 Z m 153.99,55.0387 v 46.129 h 103.9 V 18.7109 c -16.83,-5.4726 -32.65,-9.33199 -47.54,-11.56246 -14.88,-2.22656 -30.07,-3.31641 -45.62,-3.31641 -39.53,0 -69.73,11.59767 -90.55,34.83987 -20.82,23.2383 -31.25,56.5976 -31.25,100.0781 0,42.27 12.11,75.199 36.33,98.828 24.14,23.672 57.66,35.512 100.51,35.512 26.87,0 52.81,-5.391 77.77,-16.141 L 1645.66,212.5 c -19.1,9.57 -38.98,14.379 -59.64,14.379 -24.03,0 -43.25,-8.09 -57.74,-24.219 -14.41,-16.101 -21.64,-37.781 -21.64,-65 0,-28.441 5.82,-50.16 17.46,-65.16 11.64,-14.9609 28.56,-22.4609 50.78,-22.4609 11.57,0 23.36,1.2109 35.28,3.5898 V 108.32 Z m 265.62,0 v 46.129 h 103.87 V 18.7109 c -16.84,-5.4726 -32.66,-9.33199 -47.54,-11.56246 -14.88,-2.22656 -30.04,-3.31641 -45.55,-3.31641 -39.53,0 -69.72,11.59767 -90.54,34.83987 -20.82,23.2383 -31.25,56.5976 -31.25,100.0781 0,42.27 12.07,75.199 36.25,98.828 24.14,23.672 57.69,35.512 100.58,35.512 26.84,0 52.74,-5.391 77.7,-16.141 L 1911.25,212.5 c -19.1,9.57 -38.98,14.379 -59.65,14.379 -23.98,0 -43.24,-8.09 -57.65,-24.219 -14.5,-16.101 -21.72,-37.781 -21.72,-65 0,-28.441 5.82,-50.16 17.46,-65.16 11.64,-14.9609 28.59,-22.4609 50.86,-22.4609 11.52,0 23.28,1.2109 35.27,3.5898 V 108.32 Z M 2212.5,7.42188 h -59.8 l -18.99,62.34762 h -95.47 L 2019.26,7.42188 h -59.88 l 92.46,262.96912 h 67.85 z M 2052.19,116.289 h 68.24 c -17.54,56.481 -27.42,88.481 -29.65,95.902 -2.19,7.379 -3.79,13.239 -4.76,17.539 -3.91,-15.32 -15.2,-53.128 -33.83,-113.441 z m 294.29,106.762 V 7.42188 h -55.54 V 223.051 h -71.1 v 46.211 h 197.74 v -46.211 z m 349.07,-84.301 c 0,-43.3984 -10.75,-76.7187 -32.19,-100 -21.52,-23.2812 -52.34,-34.91797 -92.46,-34.91797 -40.12,0 -70.9,11.63677 -92.42,34.91797 -21.49,23.2813 -32.23,56.7188 -32.23,100.309 0,43.601 10.78,76.921 32.3,99.921 21.57,22.93 52.47,34.418 92.74,34.418 40.23,0 71.01,-11.597 92.26,-34.726 21.33,-23.16 32,-56.481 32,-99.922 z m -191.1,0 c 0,-29.301 5.55,-51.3281 16.64,-66.0898 11.1,-14.8516 27.7,-22.2305 49.81,-22.2305 44.33,0 66.48,29.4101 66.48,88.3203 0,58.98 -22.03,88.48 -66.09,88.48 -22.11,0 -38.79,-7.429 -49.96,-22.308 -11.25,-14.883 -16.88,-36.91 -16.88,-66.172 z m 300.86,85.039 v -70.738 h 17.97 c 17.54,0 30.47,2.929 38.83,8.75 8.36,5.859 12.54,15.039 12.54,27.578 0,12.422 -4.26,21.281 -12.77,26.562 -8.56,5.231 -21.8,7.848 -39.69,7.848 z m 29.57,-115.859 h -29.57 V 7.42188 h -55.47 V 269.262 h 76.33 c 35.55,0 61.84,-6.492 78.91,-19.422 17.07,-12.93 25.62,-32.57 25.62,-58.981 0,-15.429 -4.22,-29.097 -12.69,-41.089 -8.48,-12.04 -20.47,-21.45 -36.02,-28.25 39.42,-58.8598 65.08,-96.8716 77.03,-114.09812 h -61.64 z"
             style="fill:#bb84e8;fill-opacity:1;fill-rule:nonzero;stroke:none"
             id="path30" /></g></g><g
         id="g32"><g
           id="g34"
           clip-path="url(#clipPath38)"><path
             d="m 1690.12,686.289 h -416.6 c 13.67,-28.711 101.71,-50.898 208.32,-50.898 106.56,0 194.64,22.187 208.28,50.898 z m -551.49,82.5 c -1.29,-25.98 29.34,-53.398 68.44,-61.25 39.1,-7.891 71.84,6.801 73.16,32.731 1.29,26.019 -29.37,53.441 -68.43,61.289 -39.1,7.89 -71.88,-6.789 -73.17,-32.77 z m 343.17,367.501 c -88.21,-0.59 -191.06,-3.75 -275.47,-24.06 -7.5,-1.45 -8.4,-9.3 -8.4,-9.3 l -7.23,-192.032 c -0.62,-33.277 37.42,-48.398 291.1,-49.218 253.71,0.82 291.72,15.941 291.13,49.218 l -7.27,192.032 c 0,0 -0.86,7.85 -8.36,9.3 -84.45,20.31 -187.26,23.47 -275.5,24.06 z M 1825,768.789 c -1.33,25.981 -34.06,40.66 -73.12,32.77 -39.11,-7.848 -69.77,-35.27 -68.44,-61.289 1.29,-25.969 34.02,-40.622 73.12,-32.731 39.1,7.852 69.73,35.27 68.44,61.25 z M 1483.2,495.941 1460,495.98 c -86.13,0.309 -170.66,1.989 -240.98,7.141 V 463.91 c 0,-21.531 -17.42,-38.949 -38.94,-38.949 h -31.99 c -21.53,0 -38.95,17.379 -38.95,38.949 v 81.91 c -0.86,7.27 -1.72,15.66 -2.58,25.039 -6.64,34.34 -10.43,74.879 -10.43,118.36 0,55.16 6.14,105.621 16.33,144.652 2.03,8.859 4.49,16.789 7.27,23.859 0.86,2.43 1.72,4.809 2.61,7.071 l 38.75,265.119 c 0,0 1.57,11.02 11.45,13.48 88.87,24.22 303.24,26.6 310.66,26.6 7.42,0 221.8,-2.38 310.67,-26.6 9.88,-2.46 11.48,-13.48 11.48,-13.48 l 38.71,-265.119 c 0.86,-2.262 1.76,-4.641 2.62,-7.071 2.77,-7.07 5.2,-15 7.27,-23.859 10.15,-39.031 16.32,-89.492 16.32,-144.652 0,-43.481 -3.82,-84.02 -10.43,-118.36 -0.86,-9.379 -1.75,-17.769 -2.57,-25.039 v -81.91 c 0,-21.531 -17.43,-38.949 -38.95,-38.949 h -31.99 c -21.53,0 -38.95,17.379 -38.95,38.949 v 39.211 c -70.31,-5.152 -154.84,-6.832 -241.01,-7.141 z"
             style="fill:#35185a;fill-opacity:1;fill-rule:nonzero;stroke:none"
             id="path40" /></g></g><path
         d="m 1930,432.422 h 465.27 v 24.2969 H 1930 Z"
         style="fill:#35185a;fill-opacity:1;fill-rule:nonzero;stroke:none"
         id="path42" /><path
         d="m 571.129,432.422 h 465.27 v 24.2969 h -465.27 z"
         style="fill:#35185a;fill-opacity:1;fill-rule:nonzero;stroke:none"
         id="path44" /></g></g></svg>
